<mxfile host="app.diagrams.net" modified="2024-03-02T12:21:40.583Z" agent="Mozilla/5.0 (Windows NT 10.0; Win64; x64) AppleWebKit/537.36 (KHTML, like Gecko) Chrome/122.0.0.0 Safari/537.36 Edg/122.0.0.0" version="23.1.7" etag="bPRUrTEL_aZpxNh6oref" type="github">
  <diagram name="第 1 页" id="i614fcLX1gdPsU2q-L5j">
    <mxGraphModel>
      <root>
        <mxCell id="0" />
        <mxCell id="1" parent="0" />
      </root>
    </mxGraphModel>
  </diagram>
</mxfile>
